<?xml version="1.0" encoding="UTF-8"?>
<svg xmlns="http://www.w3.org/2000/svg" width="1280" height="800" viewBox="0 0 1280 800">
  <rect width="1280" height="800" fill="#121214"/>
  <rect width="1280" height="46" fill="#1c1c20"/>
  <circle cx="24" cy="23" r="6" fill="#fb7185"/>
  <circle cx="44" cy="23" r="6" fill="#fbbf24"/>
  <circle cx="64" cy="23" r="6" fill="#34d399"/>
  <rect x="96" y="12" width="420" height="22" rx="11" fill="#0e0e10"/>
  <text x="112" y="27" fill="#8d887f" font-size="12" font-family="Segoe UI, system-ui, sans-serif">studio.neodeeps.com/layer</text>
  <rect y="46" width="1280" height="754" fill="#0e1626"/>
  <rect y="46" width="1280" height="754" fill="#0e1626"/>
    <text x="48" y="110" fill="#f0f9ff" font-size="32" font-family="Segoe UI, system-ui, sans-serif" font-weight="700">Layer &amp; properti</text>
    <rect x="48" y="150" width="560" height="140" rx="18" fill="#152033"/>
        <text x="76" y="202" fill="#7dd3fc" font-size="14" font-family="Segoe UI, system-ui, sans-serif" >Posisi X</text>
        <text x="76" y="248" fill="#f0f9ff" font-size="28" font-family="Segoe UI, system-ui, sans-serif" font-weight="700">12,4 cm</text><rect x="648" y="150" width="560" height="140" rx="18" fill="#152033"/>
        <text x="676" y="202" fill="#7dd3fc" font-size="14" font-family="Segoe UI, system-ui, sans-serif" >Posisi Y</text>
        <text x="676" y="248" fill="#f0f9ff" font-size="28" font-family="Segoe UI, system-ui, sans-serif" font-weight="700">8,0 cm</text><rect x="48" y="310" width="560" height="140" rx="18" fill="#152033"/>
        <text x="76" y="362" fill="#7dd3fc" font-size="14" font-family="Segoe UI, system-ui, sans-serif" >Lebar</text>
        <text x="76" y="408" fill="#f0f9ff" font-size="28" font-family="Segoe UI, system-ui, sans-serif" font-weight="700">18 cm</text><rect x="648" y="310" width="560" height="140" rx="18" fill="#152033"/>
        <text x="676" y="362" fill="#7dd3fc" font-size="14" font-family="Segoe UI, system-ui, sans-serif" >Warna</text>
        <text x="676" y="408" fill="#f0f9ff" font-size="28" font-family="Segoe UI, system-ui, sans-serif" font-weight="700">#38bdf8</text><rect x="48" y="470" width="560" height="140" rx="18" fill="#152033"/>
        <text x="76" y="522" fill="#7dd3fc" font-size="14" font-family="Segoe UI, system-ui, sans-serif" >Font</text>
        <text x="76" y="568" fill="#f0f9ff" font-size="28" font-family="Segoe UI, system-ui, sans-serif" font-weight="700">Syne Bold</text><rect x="648" y="470" width="560" height="140" rx="18" fill="#152033"/>
        <text x="676" y="522" fill="#7dd3fc" font-size="14" font-family="Segoe UI, system-ui, sans-serif" >Efek</text>
        <text x="676" y="568" fill="#f0f9ff" font-size="28" font-family="Segoe UI, system-ui, sans-serif" font-weight="700">Bayangan halus</text>
</svg>